<svg xmlns:svg="http://www.w3.org/2000/svg"  xmlns:inkscape="http://www.inkscape.org/namespaces/inkscape" width="289" height="50" id="svg11053">
  <g inkscape:label="Layer 1" inkscape:groupmode="layer" id="layer1" transform="translate(-227.317, -407.333)">

    <g transform="matrix(6.01697, 0, 0, -6.01697, -1957.41, 2763.93)" id="g11008">
      <path id="path1576" style="fill:#ed232a;fill-opacity:1;fill-rule:nonzero;stroke:none" d="m 363.272,391.479 7.953,0 0,-7.953 -7.953,0 0,7.953 z"/>
      <path id="path1578" style="fill:#ffffff;fill-opacity:1;fill-rule:nonzero;stroke:none" d="m 364.664,390.087 5.17,0 0,-5.17 -5.17,0 0,5.17 z"/>
      <path id="path1580" style="fill:#ffffff;fill-opacity:1;fill-rule:nonzero;stroke:none" d="m 366.851,391.479 0.795,0 0,-7.953 -0.795,0 0,7.953 z"/>
      <path id="path1582" style="fill:#ffffff;fill-opacity:1;fill-rule:nonzero;stroke:none" d="m 363.272,387.899 7.953,0 0,-0.795 -7.953,0 0,0.795 z"/>
      <path id="path1584" style="fill:#004c8f;fill-opacity:1;fill-rule:nonzero;stroke:none" d="m 366.056,388.695 2.386,0 0,-2.386 -2.386,0 0,2.386 z"/>
    </g>
  </g>
</svg>